<svg width="28" height="28" viewBox="0 0 28 28" fill="none" xmlns="http://www.w3.org/2000/svg">
<g clip-path="url(#clip0_503_72)">
<path d="M14.1772 8.04533C13.0712 8.04533 11.3597 6.78767 9.55722 6.832C7.17722 6.8635 4.99555 8.21217 3.76938 10.3483C1.29955 14.6358 3.13239 20.9685 5.54155 24.4533C6.72339 26.1497 8.11755 28.0583 9.96555 27.9988C11.7389 27.923 12.4039 26.8473 14.5564 26.8473C16.6926 26.8473 17.2981 27.9988 19.1764 27.9533C21.0862 27.923 22.2984 26.2267 23.4651 24.514C24.8137 22.5447 25.3737 20.6348 25.4041 20.5298C25.3586 20.5147 21.6917 19.1053 21.6474 14.8633C21.6171 11.3167 24.5407 9.62033 24.6772 9.5445C23.0101 7.10617 20.4504 6.83317 19.5555 6.7725C17.2222 6.5905 15.2681 8.04417 14.1772 8.04417V8.04533ZM18.1182 4.46833C19.1017 3.28767 19.7516 1.63683 19.5707 0C18.1626 0.0606667 16.4651 0.939167 15.4501 2.121C14.5401 3.16633 13.7537 4.84867 13.9649 6.454C15.5259 6.57533 17.1324 5.65133 18.1171 4.4695" fill="#161616"/>
</g>
<defs>
<clipPath id="clip0_503_72">
<rect width="28" height="28" fill="white"/>
</clipPath>
</defs>
</svg>
