<svg width="28" height="28" viewBox="0 0 28 28" fill="none" xmlns="http://www.w3.org/2000/svg">
<g clip-path="url(#clip0_503_63)">
<path d="M28 14.3348C28 13.3914 27.9067 12.4174 27.7511 11.5044H14.28V16.8914H21.9956C21.6845 18.6261 20.6578 20.1479 19.1334 21.1218L23.7378 24.6218C26.4445 22.1566 28 18.5653 28 14.3348Z" fill="#4280EF"/>
<path d="M14.28 27.9696C18.1377 27.9696 21.3733 26.7218 23.7377 24.5913L19.1333 21.1218C17.8577 21.974 16.2089 22.4609 14.28 22.4609C10.5466 22.4609 7.40441 19.9957 6.2533 16.7087L1.52441 20.2696C3.95108 24.987 8.86664 27.9696 14.28 27.9696Z" fill="#34A353"/>
<path d="M6.25337 16.6783C5.66226 14.9435 5.66226 13.0566 6.25337 11.3218L1.52448 7.73047C-0.497743 11.687 -0.497743 16.3435 1.52448 20.2696L6.25337 16.6783Z" fill="#F6B704"/>
<path d="M14.28 5.56945C16.3022 5.53902 18.2933 6.29988 19.7555 7.66945L23.8311 3.65206C21.2489 1.27814 17.8266 -0.000118447 14.28 0.0303163C8.86664 0.0303163 3.95108 3.01293 1.52441 7.73032L6.2533 11.3216C7.40441 8.00423 10.5466 5.56945 14.28 5.56945Z" fill="#E54335"/>
</g>
<defs>
<clipPath id="clip0_503_63">
<rect width="28" height="28" fill="white"/>
</clipPath>
</defs>
</svg>
