<svg width="183" height="27" viewBox="0 0 183 27" fill="none" xmlns="http://www.w3.org/2000/svg">
<path d="M177.658 5.94945L177.644 6.00291H177.699H178.228H178.262L178.27 5.9705L178.41 5.40382H179.315L179.455 5.9705L179.463 6.00291H179.497H180.026H180.081L180.067 5.94945L179.351 3.22628L179.343 3.19449H179.31H178.415H178.382L178.374 3.22628L177.658 5.94945ZM180.309 5.96028V6.00291H180.352H180.865H180.908V5.96028V3.23712V3.19449H180.865H180.352H180.309V3.23712V5.96028ZM179.174 4.84395H178.551L178.861 3.60264H178.864L179.174 4.84395Z" fill="white" stroke="white" stroke-width="0.0852562"/>
<circle cx="179.464" cy="4.65039" r="3.17925" stroke="white" stroke-width="0.715232"/>
<path d="M9.68511 26.8033C7.83336 26.8033 6.17654 26.4744 4.71464 25.8165C3.25273 25.1586 2.09539 24.1719 1.24262 22.8562C0.414206 21.5161 0 19.8471 0 17.8491V17.0816H3.03345V17.8491C3.03345 19.9689 3.65476 21.5526 4.89738 22.6003C6.13999 23.6236 7.7359 24.1353 9.68511 24.1353C11.683 24.1353 13.2059 23.6846 14.2536 22.7831C15.3013 21.8815 15.8251 20.7486 15.8251 19.3841C15.8251 18.4339 15.5814 17.6786 15.0941 17.1182C14.6312 16.5578 13.9734 16.107 13.1206 15.7659C12.2678 15.4004 11.2688 15.0837 10.1237 14.8157L8.2232 14.3406C6.73694 13.9507 5.42122 13.4756 4.27607 12.9152C3.13091 12.3548 2.2294 11.6239 1.57155 10.7224C0.938055 9.79648 0.621309 8.61478 0.621309 7.17724C0.621309 5.73971 0.974602 4.49709 1.68119 3.44939C2.41214 2.40169 3.42329 1.59765 4.71464 1.03725C6.03035 0.476853 7.54098 0.196655 9.24654 0.196655C10.9765 0.196655 12.5236 0.501219 13.8881 1.11035C15.2769 1.69511 16.3611 2.57225 17.1408 3.74177C17.9449 4.88693 18.3469 6.33665 18.3469 8.09093V9.62593H15.3134V8.09093C15.3134 6.84831 15.0454 5.84935 14.5094 5.09403C13.9977 4.33872 13.279 3.77832 12.3531 3.41284C11.4516 3.04737 10.4161 2.86463 9.24654 2.86463C7.56535 2.86463 6.21309 3.24229 5.18976 3.9976C4.16642 4.72855 3.65476 5.77625 3.65476 7.14069C3.65476 8.0422 3.87404 8.77315 4.31261 9.33355C4.75118 9.89395 5.37249 10.3569 6.17654 10.7224C6.98059 11.0635 7.94301 11.368 9.0638 11.636L10.9643 12.1112C12.4505 12.4279 13.7784 12.8665 14.948 13.4269C16.1418 13.9629 17.0921 14.706 17.7987 15.6563C18.5053 16.5822 18.8585 17.8004 18.8585 19.311C18.8585 20.8217 18.4809 22.1374 17.7256 23.2582C16.9703 24.379 15.8982 25.2561 14.5094 25.8896C13.1449 26.4987 11.5369 26.8033 9.68511 26.8033Z" fill="white"/>
<path d="M30.2717 26.2916C29.2483 26.2916 28.4565 26.0114 27.8961 25.451C27.36 24.8906 27.092 24.1231 27.092 23.1485V10.9416H21.7195V8.41986H26.854V10.9382H29.7358V8.31834H27.092V2.06058H29.9793V8.41986H35.8269V10.9416H29.9793V22.71C29.9793 23.4409 30.3326 23.8064 31.0392 23.8064H35.0229V26.2916H30.2717Z" fill="white"/>
<path d="M40.5036 8.41986V26.2916H43.3908V15.4004C43.3908 13.8898 43.7807 12.7812 44.5603 12.0746C45.3644 11.3437 46.4121 10.9782 47.7034 10.9782H50.0059V8.34676H47.8862C46.8141 8.34676 45.9492 8.5295 45.2913 8.89498C44.6334 9.26045 44.1461 9.83303 43.8294 10.6127H43.3177V8.41986H40.5036Z" fill="white"/>
<path fill-rule="evenodd" clip-rule="evenodd" d="M59.1557 26.8033C57.9131 26.8033 56.7801 26.584 55.7567 26.1454C54.7334 25.7069 53.9294 25.0734 53.3446 24.245C52.7598 23.4165 52.4675 22.4054 52.4675 21.2115C52.4675 19.9933 52.7598 18.9943 53.3446 18.2146C53.9294 17.4106 54.7334 16.8136 55.7567 16.4238C56.7801 16.0096 57.9252 15.8025 59.1922 15.8025H65.2226V14.4868C65.2226 13.2198 64.8449 12.2208 64.0896 11.4899C63.3586 10.7589 62.2622 10.3934 60.8003 10.3934C59.3628 10.3934 58.242 10.7467 57.4379 11.4533C56.6339 12.1355 56.0857 13.0614 55.7933 14.2309L53.0888 13.3538C53.3812 12.3548 53.8441 11.4533 54.4776 10.6493C55.1111 9.82085 55.9517 9.16299 56.9994 8.67569C58.0714 8.16403 59.3506 7.90819 60.8369 7.90819C63.1272 7.90819 64.9058 8.50514 66.1728 9.69903C67.4398 10.8685 68.0733 12.5254 68.0733 14.6695V22.7465C68.0733 23.4775 68.4144 23.8429 69.0966 23.8429H70.7412V26.2916H68.2195C67.4154 26.2916 66.7698 26.0723 66.2825 25.6338C65.7952 25.1708 65.5515 24.5617 65.5515 23.8064V23.6236H65.1129C64.8449 24.0866 64.4794 24.5739 64.0165 25.0856C63.5779 25.5729 62.9688 25.9749 62.1891 26.2916C61.4094 26.6327 60.3983 26.8033 59.1557 26.8033ZM59.4846 24.3181C61.1902 24.3181 62.5668 23.8186 63.6145 22.8196C64.6865 21.7963 65.2226 20.3709 65.2226 18.5435V18.1415H59.3019C58.1567 18.1415 57.2065 18.3973 56.4512 18.909C55.7202 19.3963 55.3547 20.1395 55.3547 21.1384C55.3547 22.1374 55.7324 22.9171 56.4877 23.4775C57.2674 24.0379 58.2664 24.3181 59.4846 24.3181Z" fill="white"/>
<path d="M77.7207 25.451C78.2811 26.0114 79.073 26.2916 80.0963 26.2916H84.8475V23.8064H80.8638C80.1572 23.8064 79.8039 23.4409 79.8039 22.71V10.9416H85.6515V8.41986H79.8039V2.06058H76.9166V8.31834H79.6449V10.9382H76.763V8.41986H71.5442V10.9416H76.9166V23.1485C76.9166 24.1231 77.1847 24.8906 77.7207 25.451Z" fill="white"/>
<path d="M92.7303 26.2916V13.4271H95.6176V26.2916H92.7303Z" fill="white"/>
<path d="M92.4824 10.9382V10.9416H87.2482V8.41986H92.7303V3.85141C92.7303 2.87681 92.9984 2.10931 93.5344 1.54892C94.0948 0.988519 94.8866 0.708321 95.91 0.708321H100.405V3.19356H96.714C95.9831 3.19356 95.6176 3.55903 95.6176 4.28998V8.41986H101.246V10.9416H95.7573V10.9382H92.4824Z" fill="white"/>
<path fill-rule="evenodd" clip-rule="evenodd" d="M107.97 25.6703C109.358 26.4256 110.954 26.8033 112.757 26.8033C114.56 26.8033 116.144 26.4256 117.508 25.6703C118.897 24.915 119.969 23.8551 120.725 22.4907C121.504 21.1019 121.894 19.4694 121.894 17.5933V17.1182C121.894 15.2664 121.504 13.6462 120.725 12.2574C119.969 10.8685 118.897 9.79649 117.508 9.04117C116.144 8.28585 114.56 7.90819 112.757 7.90819C110.954 7.90819 109.358 8.28585 107.97 9.04117C106.605 9.79649 105.533 10.8685 104.753 12.2574C103.998 13.6462 103.62 15.2664 103.62 17.1182V17.5933C103.62 19.4694 103.998 21.1019 104.753 22.4907C105.533 23.8551 106.605 24.915 107.97 25.6703ZM117.289 22.4176C116.168 23.6115 114.658 24.2084 112.757 24.2084C110.881 24.2084 109.371 23.6115 108.225 22.4176C107.08 21.1993 106.508 19.5669 106.508 17.5202V17.1913C106.508 15.1446 107.08 13.5243 108.225 12.3305C109.371 11.1122 110.881 10.5031 112.757 10.5031C114.658 10.5031 116.168 11.1122 117.289 12.3305C118.434 13.5243 119.007 15.1446 119.007 17.1913V17.5202C119.007 19.5669 118.434 21.1993 117.289 22.4176Z" fill="white"/>
<path d="M127.09 26.2916V8.41986H129.904V10.6127H130.416C130.732 9.83303 131.22 9.26045 131.878 8.89498C132.535 8.5295 133.4 8.34676 134.473 8.34676H136.592V10.9782H134.29C132.998 10.9782 131.951 11.3437 131.147 12.0746C130.367 12.7812 129.977 13.8898 129.977 15.4004V26.2916H127.09Z" fill="white"/>
<path d="M143.769 25.7069C145.158 26.4378 146.717 26.8033 148.447 26.8033C150.153 26.8033 151.603 26.4865 152.797 25.8531C154.015 25.2196 154.977 24.379 155.684 23.3313C156.39 22.2836 156.878 21.175 157.146 20.0054L154.295 19.3841C154.076 20.7486 153.491 21.8937 152.541 22.8196C151.615 23.7455 150.263 24.2084 148.484 24.2084C147.29 24.2084 146.218 23.9404 145.268 23.4044C144.342 22.8683 143.599 22.1008 143.038 21.1019C142.502 20.1029 142.234 18.909 142.234 17.5202V17.1913C142.234 15.8025 142.502 14.6086 143.038 13.6096C143.599 12.6106 144.342 11.8431 145.268 11.3071C146.218 10.7711 147.29 10.5031 148.484 10.5031C149.653 10.5031 150.64 10.7224 151.444 11.1609C152.248 11.5995 152.87 12.1843 153.308 12.9152C153.771 13.6462 154.064 14.4502 154.185 15.3274L157 14.7426C156.805 13.5487 156.354 12.4279 155.647 11.3802C154.965 10.3325 154.015 9.49192 152.797 8.85843C151.603 8.22494 150.153 7.90819 148.447 7.90819C146.717 7.90819 145.158 8.28585 143.769 9.04117C142.405 9.77212 141.321 10.832 140.517 12.2208C139.737 13.5853 139.347 15.2299 139.347 17.1547V17.5568C139.347 19.4572 139.737 21.1019 140.517 22.4907C141.321 23.8795 142.405 24.9515 143.769 25.7069Z" fill="white"/>
<path d="M170.254 26.8033C168.451 26.8033 166.867 26.4256 165.503 25.6703C164.138 24.8906 163.078 23.8064 162.323 22.4176C161.644 21.1697 161.27 19.7449 161.202 18.143H164.079C164.158 20.0497 164.779 21.5477 165.941 22.6369C167.111 23.7089 168.573 24.245 170.327 24.245C171.862 24.245 173.044 23.8917 173.872 23.1851C174.7 22.4785 175.334 21.6379 175.772 20.6633L178.258 21.8694C177.892 22.6247 177.381 23.38 176.723 24.1353C176.089 24.8906 175.249 25.5241 174.201 26.0358C173.178 26.5475 171.862 26.8033 170.254 26.8033Z" fill="white"/>
<path d="M164.137 18.105H178.66V16.7893C178.66 14.9862 178.294 13.4147 177.563 12.0746C176.832 10.7345 175.821 9.71121 174.53 9.00462C173.238 8.27367 171.752 7.90819 170.071 7.90819C168.341 7.90819 166.806 8.29804 165.466 9.07772C164.126 9.83303 163.078 10.9051 162.323 12.2939C161.798 13.2586 161.456 14.335 161.296 15.5231H164.137V15.5822C164.396 13.9959 165.034 12.7536 166.051 11.8553C167.098 10.9295 168.439 10.4665 170.071 10.4665C171.679 10.4665 172.995 10.9295 174.018 11.8553C175.066 12.7812 175.638 14.0726 175.736 15.7294H164.137V18.105Z" fill="white"/>
</svg>
